<?xml version="1.0" encoding="UTF-8"?>
<!DOCTYPE svg PUBLIC "-//W3C//DTD SVG 1.1//EN" "http://www.w3.org/Graphics/SVG/1.1/DTD/svg11.dtd">
<svg xmlns="http://www.w3.org/2000/svg" version="1.1" width="512px" height="512px" style="shape-rendering:geometricPrecision; text-rendering:geometricPrecision; image-rendering:optimizeQuality; fill-rule:evenodd; clip-rule:evenodd" xmlns:xlink="http://www.w3.org/1999/xlink">
<g><path style="opacity:0.984" fill="#fe982d" d="M 242.5,129.5 C 241.883,129.611 241.383,129.944 241,130.5C 215.248,105.249 190.081,79.5824 165.5,53.5C 190.194,48.0808 210.027,55.7475 225,76.5C 235.323,92.6363 241.156,110.303 242.5,129.5 Z"/></g>
<g><path style="opacity:0.994" fill="#ffb130" d="M 325.5,51.5 C 347.833,74.5 370.5,97.1667 393.5,119.5C 395.977,131.354 395.977,143.354 393.5,155.5C 362.701,125.202 332.035,94.7015 301.5,64C 300.906,63.5357 300.239,63.369 299.5,63.5C 306.837,56.8342 315.504,52.8342 325.5,51.5 Z"/></g>
<g><path style="opacity:0.972" fill="#ffb831" d="M 325.5,51.5 C 347.056,50.196 364.223,58.196 377,75.5C 386.153,88.7925 391.653,103.459 393.5,119.5C 370.5,97.1667 347.833,74.5 325.5,51.5 Z"/></g>
<g><path style="opacity:0.993" fill="#fe922c" d="M 165.5,53.5 C 190.081,79.5824 215.248,105.249 241,130.5C 241.383,129.944 241.883,129.611 242.5,129.5C 242.904,139.785 241.904,149.785 239.5,159.5C 207.5,128.167 175.833,96.5 144.5,64.5C 150.496,59.001 157.496,55.3343 165.5,53.5 Z"/></g>
<g><path style="opacity:0.995" fill="#ffab2f" d="M 299.5,63.5 C 300.239,63.369 300.906,63.5357 301.5,64C 332.035,94.7015 362.701,125.202 393.5,155.5C 392.109,163.004 390.109,170.338 387.5,177.5C 386.448,177.649 385.448,177.483 384.5,177C 351.632,143.965 318.632,111.132 285.5,78.5C 288.783,72.2166 293.45,67.2166 299.5,63.5 Z"/></g>
<g><path style="opacity:0.995" fill="#fe8c2b" d="M 144.5,64.5 C 175.833,96.5 207.5,128.167 239.5,159.5C 238.17,167.487 235.837,175.154 232.5,182.5C 198.5,148.833 164.5,115.167 130.5,81.5C 133.983,74.8732 138.65,69.2066 144.5,64.5 Z"/></g>
<g><path style="opacity:0.995" fill="#fea52f" d="M 285.5,78.5 C 318.632,111.132 351.632,143.965 384.5,177C 385.448,177.483 386.448,177.649 387.5,177.5C 384.405,185.375 380.072,192.375 374.5,198.5C 341.868,165.368 309.035,132.368 276,99.5C 275.617,100.056 275.117,100.389 274.5,100.5C 276.605,92.2905 280.271,84.9572 285.5,78.5 Z"/></g>
<g><path style="opacity:0.995" fill="#fe862a" d="M 130.5,81.5 C 164.5,115.167 198.5,148.833 232.5,182.5C 229.306,189.68 224.972,196.013 219.5,201.5C 186.833,168.167 153.833,135.167 120.5,102.5C 123.049,95.0711 126.382,88.0711 130.5,81.5 Z"/></g>
<g><path style="opacity:0.994" fill="#fe9f2e" d="M 374.5,198.5 C 370.381,204.559 365.047,209.225 358.5,212.5C 329.167,182.5 299.5,152.833 269.5,123.5C 270.067,115.569 271.733,107.903 274.5,100.5C 275.117,100.389 275.617,100.056 276,99.5C 309.035,132.368 341.868,165.368 374.5,198.5 Z"/></g>
<g><path style="opacity:0.994" fill="#fd802a" d="M 120.5,102.5 C 153.833,135.167 186.833,168.167 219.5,201.5C 214.297,207.703 207.964,212.37 200.5,215.5C 172.251,188.752 144.417,161.419 117,133.5C 116.536,132.906 116.369,132.239 116.5,131.5C 116.423,121.631 117.756,111.964 120.5,102.5 Z"/></g>
<g><path style="opacity:0.991" fill="#fe992d" d="M 269.5,123.5 C 299.5,152.833 329.167,182.5 358.5,212.5C 350.269,218.556 340.935,221.223 330.5,220.5C 310.806,200.473 291.139,180.473 271.5,160.5C 268.595,148.315 267.929,135.982 269.5,123.5 Z"/></g>
<g><path style="opacity:0.99" fill="#fd7829" d="M 116.5,131.5 C 116.369,132.239 116.536,132.906 117,133.5C 144.417,161.419 172.251,188.752 200.5,215.5C 179.273,224.558 159.94,221.391 142.5,206C 123.168,184.812 114.501,159.979 116.5,131.5 Z"/></g>
<g><path style="opacity:0.964" fill="#fe942d" d="M 271.5,160.5 C 291.139,180.473 310.806,200.473 330.5,220.5C 314.157,219.578 300.657,212.912 290,200.5C 280.336,188.836 274.17,175.503 271.5,160.5 Z"/></g>
<g><path style="opacity:0.99" fill="#fd6726" d="M 125.5,273.5 C 125.657,272.127 125.49,270.793 125,269.5C 97.6667,242.167 70.3333,214.833 43,187.5C 42.5172,186.552 42.3505,185.552 42.5,184.5C 67.3833,174.762 88.8833,179.762 107,199.5C 124.793,221.34 130.96,246.007 125.5,273.5 Z"/></g>
<g><path style="opacity:0.992" fill="#ffb230" d="M 495.5,256.5 C 471.251,233.753 447.418,210.419 424,186.5C 423.536,185.906 423.369,185.239 423.5,184.5C 457.81,172.405 481.31,183.405 494,217.5C 496.701,230.405 497.201,243.405 495.5,256.5 Z"/></g>
<g><path style="opacity:0.993" fill="#ffab2f" d="M 423.5,184.5 C 423.369,185.239 423.536,185.906 424,186.5C 447.418,210.419 471.251,233.753 495.5,256.5C 493.665,265.014 490.665,273.014 486.5,280.5C 460.586,253.084 434.086,226.084 407,199.5C 406.536,198.906 406.369,198.239 406.5,197.5C 411.289,192.048 416.955,187.715 423.5,184.5 Z"/></g>
<g><path style="opacity:0.995" fill="#fd6025" d="M 42.5,184.5 C 42.3505,185.552 42.5172,186.552 43,187.5C 70.3333,214.833 97.6667,242.167 125,269.5C 125.49,270.793 125.657,272.127 125.5,273.5C 124.469,280.885 121.802,287.552 117.5,293.5C 87.5501,261.883 56.8834,230.883 25.5,200.5C 29.8805,193.786 35.5471,188.452 42.5,184.5 Z"/></g>
<g><path style="opacity:0.993" fill="#fea52f" d="M 406.5,197.5 C 406.369,198.239 406.536,198.906 407,199.5C 434.086,226.084 460.586,253.084 486.5,280.5C 483.134,287.245 478.801,293.245 473.5,298.5C 447.752,271.251 421.419,244.418 394.5,218C 393.906,217.536 393.239,217.369 392.5,217.5C 396.006,209.998 400.673,203.332 406.5,197.5 Z"/></g>
<g><path style="opacity:0.995" fill="#fc5a24" d="M 25.5,200.5 C 56.8834,230.883 87.5501,261.883 117.5,293.5C 114.145,300.188 109.145,305.188 102.5,308.5C 74.117,279.116 45.117,250.45 15.5,222.5C 17.4984,214.482 20.8317,207.148 25.5,200.5 Z"/></g>
<g><path style="opacity:0.993" fill="#fe9f2e" d="M 392.5,217.5 C 393.239,217.369 393.906,217.536 394.5,218C 421.419,244.418 447.752,271.251 473.5,298.5C 468.719,303.727 463.052,307.727 456.5,310.5C 432.833,286.5 409.167,262.5 385.5,238.5C 386.462,230.948 388.795,223.948 392.5,217.5 Z"/></g>
<g><path style="opacity:0.994" fill="#fc5323" d="M 15.5,222.5 C 45.117,250.45 74.117,279.116 102.5,308.5C 97.6402,312.592 91.9736,315.092 85.5,316C 59.8353,317.585 40.3353,307.418 27,285.5C 15.5236,265.947 11.6903,244.947 15.5,222.5 Z"/></g>
<g><path style="opacity:0.996" fill="#fd7f2a" d="M 250.5,231.5 C 298.833,280.5 347.5,329.167 396.5,377.5C 398.034,388.624 397.367,399.624 394.5,410.5C 336.701,353.201 279.035,295.701 221.5,238C 222.056,237.617 222.389,237.117 222.5,236.5C 231.606,233.76 240.94,232.093 250.5,231.5 Z"/></g>
<g><path style="opacity:0.994" fill="#fe862b" d="M 250.5,231.5 C 263.244,231.133 275.577,232.8 287.5,236.5C 319.163,269.833 351.83,302.833 385.5,335.5C 391.02,348.909 394.687,362.909 396.5,377.5C 347.5,329.167 298.833,280.5 250.5,231.5 Z"/></g>
<g><path style="opacity:0.997" fill="#fd7929" d="M 222.5,236.5 C 222.389,237.117 222.056,237.617 221.5,238C 279.035,295.701 336.701,353.201 394.5,410.5C 392.121,418.261 388.455,425.261 383.5,431.5C 322.368,369.868 261.035,308.368 199.5,247C 200.056,246.617 200.389,246.117 200.5,245.5C 207.31,241.435 214.643,238.435 222.5,236.5 Z"/></g>
<g><path style="opacity:0.963" fill="#fe8b2b" d="M 287.5,236.5 C 313.346,244.168 335.18,258.168 353,278.5C 367.354,295.387 378.187,314.387 385.5,335.5C 351.83,302.833 319.163,269.833 287.5,236.5 Z"/></g>
<g><path style="opacity:0.988" fill="#fe992d" d="M 385.5,238.5 C 409.167,262.5 432.833,286.5 456.5,310.5C 427.93,322.811 405.763,315.478 390,288.5C 383.253,272.177 381.753,255.511 385.5,238.5 Z"/></g>
<g><path style="opacity:0.997" fill="#fd7328" d="M 200.5,245.5 C 200.389,246.117 200.056,246.617 199.5,247C 261.035,308.368 322.368,369.868 383.5,431.5C 379.167,437.833 373.833,443.167 367.5,447.5C 367.631,446.761 367.464,446.094 367,445.5C 304.632,383.299 242.465,320.965 180.5,258.5C 186.476,253.174 193.143,248.841 200.5,245.5 Z"/></g>
<g><path style="opacity:0.997" fill="#fd6d27" d="M 180.5,258.5 C 242.465,320.965 304.632,383.299 367,445.5C 367.464,446.094 367.631,446.761 367.5,447.5C 361.929,452.121 355.596,455.454 348.5,457.5C 287.451,395.451 225.785,334.118 163.5,273.5C 168.271,267.39 173.938,262.39 180.5,258.5 Z"/></g>
<g><path style="opacity:0.997" fill="#fd6726" d="M 163.5,273.5 C 225.785,334.118 287.451,395.451 348.5,457.5C 335.419,460.369 322.419,460.036 309.5,456.5C 309.611,455.883 309.944,455.383 310.5,455C 256.583,400.583 202.25,346.749 147.5,293.5C 151.7,285.962 157.034,279.296 163.5,273.5 Z"/></g>
<g><path style="opacity:0.996" fill="#fd6025" d="M 147.5,293.5 C 202.25,346.749 256.583,400.583 310.5,455C 309.944,455.383 309.611,455.883 309.5,456.5C 297.525,452.09 285.192,449.09 272.5,447.5C 227.5,401.833 182.167,356.5 136.5,311.5C 139.166,304.824 142.833,298.824 147.5,293.5 Z"/></g>
<g><path style="opacity:0.998" fill="#fc5a25" d="M 136.5,311.5 C 182.167,356.5 227.5,401.833 272.5,447.5C 263.145,446.414 253.812,446.414 244.5,447.5C 243.391,446.71 242.058,446.21 240.5,446C 202.632,407.965 164.632,370.132 126.5,332.5C 129.051,325.067 132.385,318.067 136.5,311.5 Z"/></g>
<g><path style="opacity:0.995" fill="#fc5424" d="M 126.5,332.5 C 164.632,370.132 202.632,407.965 240.5,446C 242.058,446.21 243.391,446.71 244.5,447.5C 234.724,448.087 225.057,449.42 215.5,451.5C 183.784,418.783 151.45,386.783 118.5,355.5C 120.769,347.694 123.435,340.027 126.5,332.5 Z"/></g>
<g><path style="opacity:0.993" fill="#fc4e23" d="M 118.5,355.5 C 151.45,386.783 183.784,418.783 215.5,451.5C 206.262,455.352 196.595,458.018 186.5,459.5C 162.884,434.217 138.551,409.55 113.5,385.5C 114.393,375.367 116.06,365.367 118.5,355.5 Z"/></g>
<g><path style="opacity:0.982" fill="#fc4722" d="M 113.5,385.5 C 138.551,409.55 162.884,434.217 186.5,459.5C 152.058,459.9 128.892,443.9 117,411.5C 114.572,403.002 113.405,394.335 113.5,385.5 Z"/></g>
</svg>
